# xmcd
#
# Track frame offsets: 
#        182
#        28412
#        45097
#        67215
#        85677
#        107425
#        126207
#        142730
#        157325
#        173827
#
# Disc length: 2583 seconds
#
# Revision: 0
# Processed by: cddbd v1.5.1PL2 Copyright (c) Steve Scherf et al.
# Submitted via: ExactAudioCopy v0.95a2
#
DISCID=810a150a
DTITLE=jeane manson - songe d'une nuit
DYEAR=1985
DGENRE=Chanson
TTITLE0=aventurier
TTITLE1=séduit à mombassa
TTITLE2=te buscare
TTITLE3=l'amour prison
TTITLE4=hosanna
TTITLE5=songe d'une nuit
TTITLE6=nous deux
TTITLE7=sally et johnny
TTITLE8=tourne en trois temps
TTITLE9=hymne à la vie
EXTD=
EXTT0=
EXTT1=
EXTT2=
EXTT3=
EXTT4=
EXTT5=
EXTT6=
EXTT7=
EXTT8=
EXTT9=
PLAYORDER=
